<?xml version="1.0" encoding="UTF-8"?>
<svg version="1.1" xmlns="http://www.w3.org/2000/svg" width="510" height="134">
<path d="M0 0 C4.0227694 2.08051576 7.53864249 4.78030667 11.0078125 7.67578125 C14.47779808 9.98230107 17.98050077 9.49927742 22 9 C23.63662386 8.51693199 25.26214536 7.99480805 26.875 7.4375 C33.4361371 5.32493573 39.31255916 5.45691509 45.70703125 8.1328125 C53.9489987 12.65539134 59.02647042 19.07941125 62 28 C63.89541198 35.84612399 62.43418563 42.37431191 58.70703125 49.45703125 C54.50780925 56.24558584 49.5639353 60.40823982 42 63 C33.09461417 64.2984469 23.9776615 64.20056478 15 64 C13.68515625 63.98324219 12.3703125 63.96648437 11.015625 63.94921875 C-6.26128076 63.49325435 -20.70860873 56.33901699 -32.640625 43.875 C-39.31493621 35.74206449 -47.05751305 23.9276349 -46 13 C-40.25 14.875 -40.25 14.875 -38 16 C-31.45083123 17.11505244 -26.97339913 15.50450131 -21.5 11.9296875 C-17.95483974 9.19326693 -14.8728481 6.11801842 -11.8125 2.85546875 C-8.41734714 -0.62017265 -4.64040593 -0.85377145 0 0 Z " fill="#F79727" transform="translate(51,63)"/>
<path d="M0 0 C1.1240625 -0.01224609 2.248125 -0.02449219 3.40625 -0.03710938 C14.23013569 -0.05607646 22.56005208 1.01910732 31 8.1875 C36.81433275 14.20451102 39.50673341 20.81856738 40.4375 29.0625 C40.08701782 37.02800401 36.72499805 44.72272914 31 50.1875 C22.74948255 56.41890347 14.25258454 58.34816995 4 57.1875 C-4.44801129 55.07549718 -11.64615735 51.56946044 -18.79296875 46.640625 C-22.84521264 43.97259894 -26.24089465 43.86484879 -31 44.1875 C-35.85279051 46.15627118 -39.10757128 48.96926094 -42.625 52.75 C-49.19502751 59.7489043 -49.19502751 59.7489043 -54.1484375 60.5234375 C-59.61112753 60.61927417 -62.69197568 59.86508174 -67 56.1875 C-69.56316022 52.34275967 -69.16236949 50.50807059 -68.59375 46.0625 C-66.53052656 36.0721549 -61.38559766 27.98386924 -55 20.1875 C-54.47921875 19.54039063 -53.9584375 18.89328125 -53.421875 18.2265625 C-39.76507289 2.98336418 -19.26462117 0.01104623 0 0 Z " fill="#ED262E" transform="translate(74,8.8125)"/>
<path d="M0 0 C0.75505829 0.0141243 1.51011658 0.0282486 2.28805542 0.0428009 C3.89034672 0.07595097 5.4925743 0.11231144 7.09472656 0.15161133 C9.5241283 0.20634279 11.9529811 0.23525135 14.3828125 0.26367188 C15.94274579 0.29917184 17.50264447 0.33623332 19.0625 0.375 C19.78051788 0.37936569 20.49853577 0.38373138 21.23831177 0.38822937 C27.48234888 0.59478055 32.62497451 2.65563759 37.41796875 6.6953125 C42.83894934 13.39558055 45.08373153 19.25143624 44.84375 27.9453125 C44.09181201 33.52809741 42.00146404 38.69469344 37.76171875 42.52734375 C36.1171875 43.64453125 36.1171875 43.64453125 33.4296875 45.01953125 C34.1515625 45.70015625 34.8734375 46.38078125 35.6171875 47.08203125 C42.01376824 53.55130041 44.90283252 59.3294975 45.7421875 68.39453125 C44.85266819 78.7129552 40.98142381 86.14378173 33.11328125 92.8203125 C21.50932938 101.08577241 4.6764249 95.01953125 -9.5703125 95.01953125 C-9.5703125 63.99953125 -9.5703125 32.97953125 -9.5703125 1.01953125 C-6.5141495 -0.50855025 -3.34692876 -0.06640494 0 0 Z M-0.5703125 9.01953125 C-0.5703125 19.57953125 -0.5703125 30.13953125 -0.5703125 41.01953125 C5.28114641 41.85545395 10.18254629 42.10129192 15.9921875 41.83203125 C17.2287207 41.80399414 17.2287207 41.80399414 18.49023438 41.77539062 C23.89249958 41.52924425 27.15529507 40.60871573 31.4296875 37.01953125 C34.8922495 32.37240857 36.0511662 28.95262653 35.74609375 23.15625 C34.80282328 16.78626298 31.3264447 13.66605257 26.4296875 10.01953125 C23.76790529 8.68864015 21.74229354 8.90684132 18.765625 8.921875 C17.7554834 8.92437256 16.7453418 8.92687012 15.70458984 8.92944336 C14.41762207 8.93854736 13.1306543 8.94765137 11.8046875 8.95703125 C7.7209375 8.97765625 3.6371875 8.99828125 -0.5703125 9.01953125 Z M-0.5703125 50.01953125 C-0.5949626 55.12817021 -0.61314857 60.23677484 -0.62524414 65.34545898 C-0.63028454 67.08472293 -0.6371168 68.82398261 -0.64575195 70.56323242 C-0.65783042 73.05779062 -0.66354358 75.55229298 -0.66796875 78.046875 C-0.67313004 78.82916977 -0.67829132 79.61146454 -0.68360901 80.41746521 C-0.68380476 82.28520239 -0.63230944 84.15282329 -0.5703125 86.01953125 C1.95736116 88.54720491 8.72500753 87.30246547 12.1171875 87.33203125 C13.20708984 87.36103516 14.29699219 87.39003906 15.41992188 87.41992188 C21.75864729 87.47007612 25.64220925 87.32668685 30.4296875 83.01953125 C35.88904836 77.11751951 35.72796995 71.96098234 35.640625 64.15234375 C35.28444416 58.86239865 33.55631184 56.26386261 30.07421875 52.41796875 C25.48052638 48.66784534 19.91197143 49.19862579 14.2421875 49.14453125 C13.14970703 49.11101562 12.05722656 49.0775 10.93164062 49.04296875 C5.08732054 48.82505373 5.08732054 48.82505373 -0.5703125 50.01953125 Z " fill="#2E2E2E" transform="translate(293.5703125,19.98046875)"/>
<path d="M0 0 C4.73101318 2.85832046 9.82982775 7.14717142 11.57102966 12.60113525 C12.06733534 15.15961722 12.11973249 17.5248528 12.11352539 20.13183594 C12.11344986 21.19263367 12.11337433 22.2534314 12.11329651 23.34637451 C12.10813522 24.48503967 12.10297394 25.62370483 12.09765625 26.796875 C12.0962413 27.96760559 12.09482635 29.13833618 12.09336853 30.34454346 C12.0877709 34.08388829 12.0752188 37.82317326 12.0625 41.5625 C12.0574847 44.09765539 12.05292184 46.63281171 12.04882812 49.16796875 C12.03780224 55.38283293 12.02106644 61.59766219 12 67.8125 C9.61328125 67.47265625 9.61328125 67.47265625 7 66.8125 C5.1875 64.25 5.1875 64.25 4 61.8125 C3.443125 62.59625 2.88625 63.38 2.3125 64.1875 C-1.73154269 68.77803494 -6.41500978 69.37177159 -12.3125 69.828125 C-17.91996501 69.79552346 -22.75913081 68.6930076 -27.11328125 65.0390625 C-31.28533241 60.53013765 -33.96597028 56.54442589 -34.0234375 50.2421875 C-33.70205977 44.03452291 -32.77575477 39.78059839 -29 34.8125 C-24.15524741 30.57472097 -20.18980294 28.67885468 -13.67578125 28.71484375 C-12.64775391 28.71806641 -11.61972656 28.72128906 -10.56054688 28.72460938 C-8.95276367 28.73717773 -8.95276367 28.73717773 -7.3125 28.75 C-6.22904297 28.75451172 -5.14558594 28.75902344 -4.02929688 28.76367188 C-1.35280915 28.77546257 1.32356777 28.79191937 4 28.8125 C3.71710528 26.56138027 3.42335307 24.31162314 3.125 22.0625 C2.88136719 20.18304688 2.88136719 20.18304688 2.6328125 18.265625 C1.81874784 13.82344503 1.21672188 11.66420532 -2.5 9.0625 C-8.12115303 7.05494535 -13.45167716 6.61966803 -18.9375 9.1875 C-21.93385634 13.00104444 -22.90341441 17.14086706 -24 21.8125 C-31.875 20.9375 -31.875 20.9375 -33 19.8125 C-33.06264971 13.86077735 -32.02192329 9.35005448 -28 4.8125 C-19.9150551 -1.2023078 -9.80842294 -3.84090898 0 0 Z M-22.5 39.25 C-25.02410099 43.56200587 -25.33549473 46.86395278 -25 51.8125 C-23.25265181 56.5947161 -21.55658414 58.61693921 -17 60.8125 C-13.78556183 61.24739721 -13.78556183 61.24739721 -10.4375 61.125 C-8.76494141 61.11919922 -8.76494141 61.11919922 -7.05859375 61.11328125 C-4.11325216 60.82363719 -2.44502538 60.42756264 0 58.8125 C3.6245435 53.84553299 4.14144155 49.15082845 4.125 43.125 C4.12757813 42.17238281 4.13015625 41.21976563 4.1328125 40.23828125 C4.16070409 37.80253502 4.16070409 37.80253502 3 35.8125 C-4.90967286 33.8833115 -16.2954016 33.20051656 -22.5 39.25 Z " fill="#313232" transform="translate(156,47.1875)"/>
<path d="M0 0 C5.68965751 4.80459967 7.77515555 8.65093333 9 16 C9 21.61 9 27.22 9 33 C-3.21 33 -15.42 33 -28 33 C-27.9175 36.031875 -27.835 39.06375 -27.75 42.1875 C-27.73420898 43.13391357 -27.71841797 44.08032715 -27.70214844 45.05541992 C-27.54045815 49.06406251 -27.30567527 51.49164873 -25.203125 54.98828125 C-22.11065754 57.81207689 -20.3881011 58.94271935 -16.16015625 59.1171875 C-8.21750415 58.63294115 -8.21750415 58.63294115 -2 54 C-0.85185003 51.70370006 -0.69230191 49.92301914 -0.4375 47.375 C-0.293125 45.93125 -0.14875 44.4875 0 43 C2.97 43.33 5.94 43.66 9 44 C8.84905913 51.46471226 8.12594148 57.31047334 3 63 C-3.54337064 68.31648865 -11.37544974 68.32630979 -19.55859375 67.8515625 C-25.7215512 66.89026931 -29.92747176 63.62920476 -34 59 C-37.34437716 53.66250918 -37.15807445 47.3717709 -37.16796875 41.2578125 C-37.17129715 40.53061005 -37.17462555 39.80340759 -37.17805481 39.0541687 C-37.18309345 37.52293526 -37.18546409 35.99169094 -37.18530273 34.46044922 C-37.18748701 32.13881023 -37.20566895 29.81764876 -37.22460938 27.49609375 C-37.22754454 26.0000016 -37.22952851 24.50390723 -37.23046875 23.0078125 C-37.23765427 22.32421661 -37.24483978 21.64062073 -37.25224304 20.93630981 C-37.22448892 14.97584993 -36.46905815 9.39402069 -33.3125 4.25 C-24.72050031 -4.10978348 -10.52933273 -6.02018796 0 0 Z M-26.875 10.375 C-28.6421983 15.43671286 -28.6421983 15.43671286 -28 27 C-18.76 27 -9.52 27 0 27 C0.88856274 16.37112588 0.88856274 16.37112588 -3 8 C-10.68613838 3.38831697 -20.87483793 2.77479471 -26.875 10.375 Z " fill="#2F2F2F" transform="translate(268,49)"/>
<path d="M0 0 C6.67227548 6.03185618 8.28065405 12.17484703 8.84326172 20.94287109 C9.22490834 29.39149013 9.10136673 37.85788561 9.0625 46.3125 C9.05747279 48.22851445 9.05291206 50.14453018 9.04882812 52.06054688 C9.03792424 56.70706353 9.02072757 61.35351721 9 66 C7.35 66 5.7 66 4 66 C3.01 64.02 2.02 62.04 1 60 C0.27683594 60.63228516 0.27683594 60.63228516 -0.4609375 61.27734375 C-1.09257812 61.82519531 -1.72421875 62.37304688 -2.375 62.9375 C-3.00148438 63.48277344 -3.62796875 64.02804688 -4.2734375 64.58984375 C-7.85196117 67.51257462 -11.31640323 67.25290865 -15.75 67.3125 C-16.45382812 67.34150391 -17.15765625 67.37050781 -17.8828125 67.40039062 C-24.44590693 67.47968452 -27.87940782 64.87961579 -32.75 60.5625 C-37.02381987 55.69509403 -37.44775365 51.06599767 -37.3125 44.78515625 C-36.67152988 39.07251005 -34.30807345 34.88636362 -30 31.125 C-25.61006033 28.0154594 -23.00591754 26.74437869 -17.578125 26.8046875 C-16.04091797 26.81435547 -16.04091797 26.81435547 -14.47265625 26.82421875 C-13.40917969 26.84097656 -12.34570312 26.85773438 -11.25 26.875 C-9.63158203 26.88853516 -9.63158203 26.88853516 -7.98046875 26.90234375 C-5.32008722 26.92588695 -2.66015664 26.95877201 0 27 C-0.02980988 16.61603943 -0.02980988 16.61603943 -5 8 C-9.47796437 5.25975315 -13.90069529 5.3877612 -19 6 C-22.57413578 7.16052203 -22.57413578 7.16052203 -25 10 C-26.34707005 13.26779731 -27.24942412 16.54998455 -28 20 C-30.64 19.67 -33.28 19.34 -36 19 C-37.32359399 15.02921804 -36.81691271 12.52767243 -35.015625 8.76953125 C-31.99854858 3.51285579 -28.14111283 -0.70984938 -22.20703125 -2.55859375 C-14.96776829 -4.00644634 -6.39412334 -4.06769007 0 0 Z M-15.62109375 33.05078125 C-19.88463643 33.30242374 -21.57761778 33.65681444 -25 36.4375 C-28.85319941 41.37441175 -28.45875519 45.90384934 -28 52 C-26.9570218 55.12893461 -26.14519196 56.31718602 -23.3359375 57.9921875 C-18.13457538 60.33383658 -13.49217826 60.36516859 -8 59 C-3.75724871 57.15532553 -1.95861213 55.16066757 0 51 C0.37700331 48.0719169 0.32951643 45.19707753 0.25 42.25 C0.24484375 41.47011719 0.2396875 40.69023438 0.234375 39.88671875 C0.52363811 36.1375062 0.52363811 36.1375062 -1 33 C-5.87072978 32.73116102 -10.74699762 32.95635018 -15.62109375 33.05078125 Z " fill="#2E2E2E" transform="translate(383,49)"/>
<path d="M0 0 C4.44752873 2.95853115 8.09756826 7.12473602 9.78515625 12.1875 C9.86693739 13.88766844 9.89265126 15.59086297 9.8828125 17.29296875 C9.88031494 18.17879639 9.87781738 19.06462402 9.87524414 19.97729492 C9.86614014 21.0985376 9.85703613 22.21978027 9.84765625 23.375 C9.82703125 26.943125 9.80640625 30.51125 9.78515625 34.1875 C-2.42484375 34.1875 -14.63484375 34.1875 -27.21484375 34.1875 C-27.11153462 46.48768937 -27.11153462 46.48768937 -23.21484375 58.1875 C-18.95063603 60.66669053 -14.06689594 60.79517513 -9.21484375 60.1875 C-5.91720444 59.30339709 -2.97144448 58.37352277 -1.05859375 55.375 C-0.14503263 53.00650821 0.18739869 50.96208569 0.41015625 48.4375 C0.59578125 46.33375 0.59578125 46.33375 0.78515625 44.1875 C3.75515625 44.5175 6.72515625 44.8475 9.78515625 45.1875 C10.37548997 56.25079114 10.37548997 56.25079114 6.78515625 61.1875 C-1.49072584 68.51510393 -9.36593306 69.074504 -20.08789062 68.44824219 C-24.80404079 67.87009155 -28.30177842 65.88485214 -31.21484375 62.1875 C-34.60898043 56.04743246 -35.81629923 50.80586061 -35.74609375 43.83984375 C-35.74992065 42.98370987 -35.75374756 42.12757599 -35.75769043 41.24549866 C-35.76039258 39.44970512 -35.75315134 37.65387107 -35.73632812 35.8581543 C-35.7148661 33.12784268 -35.73620027 30.40015379 -35.76171875 27.66992188 C-35.75907569 25.91405676 -35.75395115 24.15819327 -35.74609375 22.40234375 C-35.75419067 21.59691635 -35.7622876 20.79148895 -35.77062988 19.96165466 C-35.66824926 13.69979557 -34.09867535 8.39312501 -29.83850098 3.65757751 C-22.15644939 -3.23723116 -9.33029846 -4.12038658 0 0 Z M-23.21484375 9.1875 C-26.41111854 13.63945417 -27.35773905 17.4616707 -27.33984375 22.875 C-27.34242188 23.66261719 -27.345 24.45023438 -27.34765625 25.26171875 C-27.42612153 27.19514914 -27.42612153 27.19514914 -26.21484375 28.1875 C-24.21519393 28.27508003 -22.21248265 28.29446576 -20.2109375 28.28515625 C-18.38852539 28.28032227 -18.38852539 28.28032227 -16.52929688 28.27539062 C-15.24990234 28.26701172 -13.97050781 28.25863281 -12.65234375 28.25 C-10.72745117 28.24323242 -10.72745117 28.24323242 -8.76367188 28.23632812 C-5.58068353 28.22449545 -2.39778613 28.20801068 0.78515625 28.1875 C2.43929913 23.22507136 1.77808243 18.27289217 0.78515625 13.1875 C-1.11061172 9.51960111 -3.23325301 7.51469691 -7.21484375 6.1875 C-15.83316387 5.40029972 -15.83316387 5.40029972 -23.21484375 9.1875 Z " fill="#2B2C2C" transform="translate(490.21484375,47.8125)"/>
<path d="M0 0 C2.64 0 5.28 0 8 0 C9.87788672 1.87788672 9.12008587 4.59165909 9.12442017 7.08978271 C9.12082489 7.96515686 9.11722961 8.84053101 9.11352539 9.74243164 C9.11367142 10.6594133 9.11381744 11.57639496 9.1139679 12.52116394 C9.1132684 15.56751836 9.10547428 18.61381245 9.09765625 21.66015625 C9.0957922 23.76622993 9.09436824 25.87230403 9.09336853 27.9783783 C9.08954231 33.53342883 9.07971114 39.08845341 9.06866455 44.64349365 C9.05845267 50.3072474 9.05387139 55.97100533 9.04882812 61.63476562 C9.03808896 72.75652185 9.0210113 83.87825877 9 95 C6.03 95 3.06 95 0 95 C0 63.65 0 32.3 0 0 Z " fill="#373737" transform="translate(399,20)"/>
<path d="M0 0 C0.721875 0.00257812 1.44375 0.00515625 2.1875 0.0078125 C2.909375 0.00523438 3.63125 0.00265625 4.375 0 C6.1875 0.1328125 6.1875 0.1328125 7.1875 1.1328125 C7.28275367 4.05475915 7.31302736 6.95301579 7.30102539 9.87524414 C7.30117142 10.7922258 7.30131744 11.70920746 7.3014679 12.65397644 C7.3007684 15.70033086 7.29297428 18.74662495 7.28515625 21.79296875 C7.2832922 23.89904243 7.28186824 26.00511653 7.28086853 28.1111908 C7.27704231 33.66624133 7.26721114 39.22126591 7.25616455 44.77630615 C7.24595267 50.4400599 7.24137139 56.10381783 7.23632812 61.76757812 C7.22558896 72.88933435 7.2085113 84.01107127 7.1875 95.1328125 C3.8875 95.1328125 0.5875 95.1328125 -2.8125 95.1328125 C-2.83562166 82.89400921 -2.85341418 70.65521107 -2.86431217 58.41639042 C-2.86954139 52.73404738 -2.87663973 47.05171923 -2.88793945 41.36938477 C-2.89876696 35.89052114 -2.90477654 30.41167188 -2.90737724 24.93279839 C-2.90923174 22.83751639 -2.91285282 20.74223522 -2.91823006 18.6469593 C-2.92543868 15.72303666 -2.92649102 12.79917417 -2.92602539 9.87524414 C-2.92962067 8.99987 -2.93321594 8.12449585 -2.93692017 7.22259521 C-2.92476067 0.21431436 -2.92476067 0.21431436 0 0 Z " fill="#323232" transform="translate(177.8125,19.8671875)"/>
<path d="M0 0 C0 3.97659293 -1.29623139 4.71714891 -4 7.5625 C-7.86533294 11.72377249 -11.44001678 16.00196088 -14.93359375 20.4765625 C-17.89623769 24.09446039 -21.1403355 27.43288851 -24.41015625 30.7734375 C-26.18475117 32.81165289 -26.18475117 32.81165289 -26.02734375 34.97265625 C-24.59623592 37.79678158 -22.68519768 39.77276354 -20.5 42.0625 C-16.15802057 46.68617209 -12.1002586 51.47029761 -8.1171875 56.41015625 C-5.56641466 59.53038206 -2.9105258 62.54386023 -0.21484375 65.5390625 C1 67 1 67 1 68 C-3.24519394 68.86681971 -6.77115189 69.03393621 -11 68 C-14.89390198 64.66017103 -17.79183481 60.86834074 -20.765625 56.70996094 C-22.4976808 54.31057035 -24.37378635 52.03753742 -26.25 49.75 C-26.87261719 48.95851562 -27.49523437 48.16703125 -28.13671875 47.3515625 C-29.42745688 45.72258063 -30.74459832 44.11430519 -32.08203125 42.5234375 C-32.73558594 41.73195312 -33.38914063 40.94046875 -34.0625 40.125 C-34.65160156 39.42632812 -35.24070313 38.72765625 -35.84765625 38.0078125 C-37 36 -37 36 -36.94921875 34.1015625 C-35.60628933 31.12832783 -33.76777138 28.81452233 -31.75 26.25 C-31.3176001 25.69723389 -30.8852002 25.14446777 -30.43969727 24.57495117 C-26.10265048 19.05930106 -21.66244831 13.62388789 -17.20410156 8.20605469 C-16.67139648 7.55668945 -16.13869141 6.90732422 -15.58984375 6.23828125 C-15.11409912 5.66118408 -14.63835449 5.08408691 -14.14819336 4.48950195 C-12.91265047 2.98519413 -12.91265047 2.98519413 -12 1 C-8.204122 -0.5183512 -4.0122978 -0.06687163 0 0 Z " fill="#373737" transform="translate(223,47)"/>
<path d="M0 0 C-4.0722001 5.57332484 -8.36877033 10.9306864 -12.76171875 16.25390625 C-14.80556565 18.76145314 -16.78666988 21.30427799 -18.75 23.875 C-21.30082432 27.18690943 -23.95463004 30.13919791 -27 33 C-24.18917038 37.44827046 -21.11333775 41.24732731 -17.5 45.0625 C-8 55.17081063 -8 55.17081063 -8 58 C-7.34 58 -6.68 58 -6 58 C-4.4921875 59.71484375 -4.4921875 59.71484375 -2.875 61.9375 C-2.33617187 62.66839844 -1.79734375 63.39929688 -1.2421875 64.15234375 C0 66 0 66 0 67 C-4.1234168 67.54843475 -7.89130046 67.73480521 -12 67 C-15.11983352 64.52564928 -16.889615 61.33982947 -19 58 C-20.45496646 56.16801668 -21.93529339 54.35595075 -23.4375 52.5625 C-30.28125 44.21875 -30.28125 44.21875 -32.4375 41.5625 C-33.07558594 40.78003906 -33.71367187 39.99757812 -34.37109375 39.19140625 C-35.86667084 37.17937088 -36.91595937 35.24852244 -38 33 C-33.44967465 26.83778148 -28.71262839 20.86015724 -23.82250977 14.96484375 C-20.76672249 11.26096426 -18.03855047 7.54251933 -15.4375 3.5 C-11.50217939 -1.76374102 -5.99667702 -0.79758758 0 0 Z " fill="#313131" transform="translate(447,48)"/>
<path d="M0 0 C0.66 0.33 1.32 0.66 2 1 C-3.28 6.28 -8.56 11.56 -14 17 C-14 12.95607032 -12.51908749 11.99868382 -9.8125 9.0625 C-9.03519531 8.20785156 -8.25789063 7.35320313 -7.45703125 6.47265625 C-5.09786332 4.09848566 -2.65532732 2.0327639 0 0 Z " fill="#F47A7F" transform="translate(29,20)"/>
<path d="M0 0 C0.66 0.33 1.32 0.66 2 1 C-0.97 3.97 -3.94 6.94 -7 10 C-7 7 -7 7 -4.625 4.4375 C-3.75875 3.633125 -2.8925 2.82875 -2 2 C-1.34 1.34 -0.68 0.68 0 0 Z " fill="#696969" transform="translate(465,48)"/>
<path d="M0 0 C0.99 0.33 1.98 0.66 3 1 C0.69 3.31 -1.62 5.62 -4 8 C-4 4.09161134 -2.49432124 2.88405893 0 0 Z " fill="#7C7C7C" transform="translate(129,80)"/>
</svg>
